<svg version="1.1" id="Layer_1" xmlns="http://www.w3.org/2000/svg" xmlns:xlink="http://www.w3.org/1999/xlink" x="0px" y="0px"
	 width="100%" viewBox="0 0 688 1000" enable-background="new 0 0 688 1000" xml:space="preserve">
<path fill="#FFFFFF" opacity="1.000000" stroke="none" 
	d="
M1.000000,276.000000 
	C1.000000,184.013519 1.000000,92.527054 1.000000,1.020288 
	C230.285904,1.020288 459.571808,1.020288 688.928833,1.020288 
	C688.928833,334.236633 688.928833,667.473267 688.928833,1000.854980 
	C459.666718,1000.854980 230.333374,1000.854980 1.000000,1000.854980 
	C1.000000,759.427917 1.000000,517.963928 1.000000,276.000000 
M129.000000,351.359924 
	C129.000000,338.948212 129.000000,326.536530 129.000000,314.250427 
	C97.622658,314.250427 67.014542,314.250427 36.000000,314.250427 
	C36.000000,322.621979 35.833614,330.753113 36.030891,338.875427 
	C36.646793,364.233459 34.471394,389.640717 37.927155,414.956665 
	C40.568707,434.307922 46.269344,452.682251 54.728687,470.153503 
	C61.417614,483.968292 69.764603,496.780914 79.851089,508.490692 
	C89.481239,519.670715 100.046379,529.726135 111.912285,538.470703 
	C124.297623,547.598022 137.539764,555.264465 151.830307,560.883911 
	C167.602951,567.086121 183.834122,571.784668 200.882080,573.004517 
	C207.432480,573.473267 213.979828,573.984985 221.000000,574.512512 
	C221.000000,576.385376 221.000000,578.338501 221.000000,580.291626 
	C221.000000,691.290344 220.941193,802.289246 221.170624,913.287476 
	C221.182312,918.942932 218.767624,922.191528 215.087860,925.402649 
	C201.948792,936.868958 188.836853,948.366455 175.674484,959.806030 
	C168.856339,965.731873 161.905304,971.505188 155.108368,977.454834 
	C151.237396,980.843140 147.555969,984.447937 142.963943,988.723755 
	C200.344757,988.723755 256.402313,988.723755 312.969391,988.723755 
	C326.488037,887.320374 340.009644,785.894958 353.531219,684.469543 
	C353.794312,684.429993 354.057404,684.390503 354.320496,684.350952 
	C368.687927,785.843018 383.055359,887.335022 397.414032,988.765076 
	C451.948456,988.765076 506.180634,988.765076 561.306396,988.765076 
	C559.190979,986.828003 557.736450,985.328125 556.114990,984.038086 
	C543.961609,974.368774 531.771729,964.745239 519.600220,955.098694 
	C508.583679,946.367249 497.369232,937.866943 486.681152,928.749939 
	C483.148376,925.736328 477.835022,924.223083 477.847961,917.378967 
	C478.061615,804.213989 478.000000,691.048462 478.000000,577.883057 
	C478.000000,576.303345 478.000000,574.723633 478.000000,573.893372 
	C488.484283,572.878906 498.165192,572.120789 507.799500,570.972168 
	C526.857422,568.700195 544.831055,562.682556 562.060425,554.418579 
	C576.827576,547.335632 590.343567,538.375671 602.905029,527.765808 
	C621.077454,512.416870 636.031799,494.484283 647.548950,473.798096 
	C664.689392,443.011993 672.163879,409.716370 672.013794,374.588287 
	C671.935486,356.255493 672.000000,337.922089 672.000000,319.588959 
	C672.000000,317.822021 672.000000,316.055084 672.000000,314.348694 
	C641.660950,314.348694 611.934814,314.348694 581.000977,314.348694 
	C581.000977,331.112091 581.395264,347.539062 580.880432,363.937500 
	C580.442078,377.898132 576.269043,391.158386 570.564209,403.840881 
	C561.092346,424.897461 547.062744,442.292328 528.467468,456.119080 
	C507.312531,471.849121 483.474579,480.023743 457.421387,481.895264 
	C448.301880,482.550385 439.091827,481.847015 429.931335,482.083160 
	C426.733551,482.165588 425.117889,480.989166 424.007294,478.185211 
	C420.065674,468.233917 416.025085,458.321594 411.986847,448.408813 
	C407.850342,438.254944 403.672577,428.117889 399.159027,417.110504 
	C391.270538,426.744843 381.344421,432.120544 370.758301,436.780212 
	C353.267487,444.479126 336.508972,444.343658 320.662109,433.133209 
	C314.515472,428.784912 309.046448,423.478790 303.090363,418.458679 
	C296.622803,438.554596 290.105316,458.805695 283.451447,479.480530 
	C272.480408,478.975647 261.875092,478.746704 251.316467,477.920746 
	C242.689575,477.245880 233.845703,476.859131 225.572281,474.604431 
	C197.561996,466.971039 174.210480,452.054626 156.202515,428.842865 
	C138.658936,406.229706 130.387482,380.559296 129.000000,351.359924 
M593.532654,130.031433 
	C591.114746,126.947655 589.026733,123.513374 586.205322,120.858368 
	C581.412598,116.348366 575.629883,113.173218 568.984436,116.165596 
	C562.925293,118.893951 562.368835,124.995468 563.130920,130.598511 
	C564.222046,138.621490 565.364685,146.815018 567.994568,154.413391 
	C573.133301,169.260727 579.313721,183.747696 585.069519,198.381241 
	C586.887817,203.004028 588.727234,207.618515 590.557007,212.236816 
	C583.756409,205.614944 577.788574,198.638580 571.437622,192.030380 
	C563.083740,183.338165 554.415527,174.948563 545.909546,166.401871 
	C542.583435,163.059830 538.347534,160.166168 536.226074,156.166565 
	C529.378235,143.256409 523.666443,129.745804 516.879211,116.800896 
	C506.231506,96.493057 494.683472,76.722359 476.442139,61.987812 
	C469.193024,56.132305 461.435608,51.107292 452.133026,49.071022 
	C447.587677,48.076077 440.612579,50.571690 440.252228,53.845989 
	C439.808014,57.882183 439.215790,62.661926 440.894714,66.015244 
	C444.492462,73.201088 448.557709,80.616150 454.131866,86.257126 
	C467.603149,99.889862 482.056030,112.552162 496.092468,125.627945 
	C497.318573,126.770172 498.392181,128.076141 499.536652,129.306061 
	C499.286560,129.629013 499.036469,129.951981 498.786377,130.274948 
	C497.400421,129.556366 496.022675,128.821350 494.627167,128.121796 
	C482.567047,122.076080 470.475708,116.091766 458.451721,109.975128 
	C451.120117,106.245522 441.978271,105.947960 436.693420,98.275658 
	C434.839539,95.584297 432.477966,93.233940 430.276031,90.792992 
	C426.291382,86.375916 422.425659,81.832664 418.201050,77.654800 
	C408.713562,68.272331 399.778503,58.099079 389.207642,50.116013 
	C380.380951,43.450130 369.845917,38.719627 359.520630,34.456367 
	C349.086639,30.148228 338.084229,27.048300 327.105255,24.330452 
	C323.787201,23.509066 318.490784,24.594719 316.370178,26.897167 
	C314.591919,28.827923 316.068420,33.803741 316.234100,37.425354 
	C316.258301,37.954391 317.075378,38.409168 317.409973,38.967571 
	C325.067169,51.746758 337.420593,59.109547 349.906372,65.802719 
	C364.348938,73.544823 379.501648,79.955605 394.271790,87.097855 
	C397.910309,88.857292 401.261078,91.211731 405.897217,93.981537 
	C403.719635,93.981537 403.052002,94.043686 402.398895,93.972321 
	C390.367218,92.657730 378.356140,91.101212 366.299194,90.092712 
	C360.010590,89.566696 353.637268,90.129799 347.312347,89.909309 
	C345.711578,89.853508 343.616943,89.120949 342.651459,87.953339 
	C331.641418,74.638313 320.351440,61.698399 307.673248,49.808800 
	C291.089142,34.256279 272.185669,25.122993 249.573883,24.075951 
	C234.068756,23.357979 218.728348,25.025404 204.401108,31.407003 
	C198.210342,34.164482 192.275284,37.983784 190.304550,45.335548 
	C189.424530,48.618473 189.727173,51.295891 193.527374,52.946568 
	C207.052017,58.821205 221.698395,59.261829 235.871780,61.954933 
	C245.309204,63.748150 255.065292,64.278351 264.250885,66.882851 
	C277.146606,70.539322 289.715729,75.408607 302.287598,80.124153 
	C310.253784,83.112160 317.970947,86.763969 326.611938,90.466011 
	C313.622833,92.777069 301.728607,94.683388 289.924133,97.039177 
	C268.230255,101.368553 247.278580,108.168640 226.830322,116.579391 
	C222.054138,118.543915 216.961121,122.084190 212.326843,121.639297 
	C192.840851,119.768616 173.542007,115.751808 154.041946,114.283676 
	C137.144226,113.011467 119.969543,112.921974 103.253792,117.087158 
	C93.149147,119.605003 83.355156,123.220360 77.777756,132.869125 
	C72.467064,142.056488 74.929222,147.557678 84.880600,148.824387 
	C92.112419,149.744949 99.600266,149.513290 106.894707,148.881042 
	C117.793869,147.936371 128.683640,146.540176 139.467896,144.695770 
	C154.520218,142.121445 169.471573,138.956787 185.252182,135.892075 
	C184.309189,136.980423 184.056015,137.446777 183.664780,137.698990 
	C169.732300,146.680573 155.729202,155.554398 141.880905,164.663620 
	C138.071182,167.169586 134.464539,169.547684 129.716507,170.058914 
	C115.895432,171.547104 102.091049,173.214050 88.306946,175.016083 
	C67.599014,177.723267 48.109329,184.145386 30.222580,195.018799 
	C24.750612,198.345215 20.180557,202.711594 18.332542,209.215240 
	C16.673622,215.053406 19.543749,219.054596 25.655735,218.946701 
	C30.420229,218.862579 35.409355,219.105286 39.894787,217.807205 
	C57.156624,212.811691 74.300552,207.391693 91.390396,201.828781 
	C96.915718,200.030243 102.140076,197.307114 107.502098,195.006927 
	C106.897583,196.349518 105.745026,196.816254 105.125999,197.669891 
	C97.674141,207.946075 89.718758,217.919739 83.063499,228.694244 
	C75.685936,240.638153 69.550056,253.287140 69.949051,268.043457 
	C70.218102,277.993896 74.814728,285.176208 83.120918,287.606140 
	C91.491348,290.054871 100.054848,286.880615 105.004883,278.511841 
	C111.531563,267.477570 117.385658,256.047424 123.628197,244.842789 
	C138.063934,218.932312 155.721359,195.623779 177.746353,175.530945 
	C190.875977,163.553131 204.650467,152.518829 220.002243,143.759811 
	C233.895248,135.833099 248.556152,129.252274 262.878448,122.078003 
	C263.160858,122.514282 263.443237,122.950554 263.725647,123.386833 
	C263.246765,124.323921 262.880310,125.342133 262.271637,126.185577 
	C256.074585,134.773148 249.357422,143.030243 243.736008,151.976868 
	C236.922913,162.820114 231.543884,174.331329 232.947006,187.855057 
	C233.897446,197.015717 233.781906,206.318024 235.222458,215.385513 
	C236.139069,221.155029 238.350769,226.989655 241.203598,232.114960 
	C245.126022,239.161865 253.275574,238.569580 257.083832,231.459824 
	C258.535980,228.748764 260.320892,225.983902 260.845764,223.045578 
	C264.396118,203.168991 268.137329,183.305130 270.833405,163.304581 
	C272.744141,149.130157 276.501587,135.707855 281.960815,122.562080 
	C284.269012,117.003929 288.163239,114.875061 293.536865,113.986916 
	C297.700378,113.298767 301.794067,112.171249 305.964935,111.547852 
	C313.746674,110.384758 321.561981,109.446205 329.363342,108.414200 
	C324.445312,115.113663 318.970978,120.242485 314.520935,126.143730 
	C298.062622,147.969269 292.756348,172.703568 297.134888,199.449966 
	C298.698273,208.999924 302.747772,217.493988 313.190948,220.650055 
	C320.035065,222.718460 324.867645,220.200516 325.912048,213.899078 
	C326.820618,208.417465 327.279938,202.862747 328.006317,197.349365 
	C329.648529,184.885178 330.731354,172.308533 333.146881,159.994431 
	C336.447113,143.170319 342.860809,127.398315 352.010315,112.799820 
	C354.630280,108.619469 357.692719,106.192078 363.121918,106.912239 
	C375.293396,108.526726 387.723724,108.732742 399.686493,111.240112 
	C414.553772,114.356255 429.069000,119.169884 443.685669,123.424278 
	C444.669312,123.710564 445.912262,125.491844 445.863800,126.522781 
	C445.659821,130.862885 445.011169,135.182083 444.522339,139.534439 
	C442.823334,139.080841 441.083679,138.642242 439.358734,138.151932 
	C420.224915,132.713165 398.621063,145.839081 395.008698,164.928009 
	C393.676941,171.965332 393.555664,179.267822 391.811554,186.179169 
	C390.511749,191.329956 388.776581,197.718750 384.987183,200.634048 
	C374.707764,208.542313 378.086334,220.923965 385.978546,226.009888 
	C397.413147,233.378616 409.779602,233.651306 422.292175,230.187576 
	C439.557343,225.408249 452.259308,214.459900 460.941895,198.997055 
	C470.007782,182.851639 470.492126,161.231644 455.490631,146.987228 
	C451.942932,143.618561 449.785187,140.002533 452.963684,135.020859 
	C454.223267,133.046677 454.660889,130.548050 455.549561,128.074310 
	C509.816345,152.096390 553.119751,189.514145 589.158813,236.061050 
	C569.985962,232.131653 550.999939,229.502747 531.552856,229.867752 
	C513.295166,230.210419 496.461700,234.951996 480.929962,244.151367 
	C475.056213,247.630356 470.117615,252.690445 468.651123,259.879211 
	C467.049438,267.730896 467.155914,271.418701 474.869019,275.961487 
	C482.478424,280.443146 491.072205,280.289703 498.870911,278.265747 
	C508.662537,275.724640 517.956909,271.169830 527.349426,267.207977 
	C550.124695,257.601135 573.534058,250.240723 598.200256,246.300735 
	C604.221741,255.408401 610.630493,264.080841 615.859436,273.414246 
	C618.749878,278.573608 622.283264,279.842743 627.311707,278.912445 
	C629.291199,278.546204 631.118958,277.359650 633.429199,276.369476 
	C629.695923,270.401276 626.284546,264.697632 622.628113,259.155670 
	C615.594910,248.495712 607.717712,238.546036 607.813965,224.489426 
	C607.934021,206.970032 606.666321,189.441177 606.000366,171.916321 
	C605.439331,157.152420 600.972351,143.530746 593.532654,130.031433 
M245.422379,361.927429 
	C233.683533,366.578064 222.831207,372.696350 213.182159,380.930389 
	C208.682373,384.770264 204.489044,389.295258 205.270813,395.201263 
	C206.102371,401.483704 210.102661,407.020111 216.669907,408.653931 
	C221.844635,409.941345 227.787064,410.977142 232.764862,409.697876 
	C248.581833,405.633148 264.191772,400.687927 279.698486,395.531921 
	C285.031342,393.758728 289.163269,391.639587 294.176117,396.829529 
	C298.669037,401.481201 304.901672,404.399811 309.927307,408.607819 
	C313.432892,411.543060 315.932495,415.657349 319.343719,418.732056 
	C327.802521,426.356293 337.277435,431.567230 349.274445,431.071716 
	C360.801331,430.595642 370.739716,425.693451 380.205811,420.069763 
	C393.146515,412.381866 399.460907,400.167694 398.801636,385.285583 
	C398.330963,374.660980 396.015686,364.118134 394.523499,353.538788 
	C393.749664,353.247742 394.398682,352.771851 395.111664,352.428741 
	C411.334259,344.621735 427.745239,337.178589 443.716064,328.887390 
	C451.768799,324.706879 459.366669,319.283234 463.141876,310.356934 
	C466.971619,301.301727 464.841705,292.998230 452.736176,293.756592 
	C439.372345,294.593719 426.714447,297.887238 414.050934,301.528046 
	C404.309509,304.328766 394.701050,307.591949 384.909271,310.688751 
	C381.602173,307.285400 378.551758,303.864960 375.209534,300.758423 
	C364.407166,290.717682 351.687683,285.942291 337.104156,289.274292 
	C331.798615,290.486481 330.094299,288.634857 330.024811,284.553955 
	C329.975952,281.684753 331.431030,278.675110 332.682617,275.942566 
	C333.408325,274.358154 335.060303,273.197998 336.295441,271.846924 
	C336.190338,271.335388 336.085205,270.823822 335.980103,270.312286 
	C330.730469,272.569397 326.180237,272.808807 323.996643,265.403992 
	C322.387299,269.657288 321.386780,272.301514 320.372803,274.981293 
	C317.488342,273.055969 314.754700,271.231293 311.513123,269.067627 
	C310.696747,272.593384 310.127258,275.053009 309.702393,276.887848 
	C306.699371,275.807404 303.620941,274.699829 300.542480,273.592224 
	C300.339630,274.025757 300.136749,274.459259 299.933899,274.892792 
	C300.813171,276.507996 301.692413,278.123169 302.117126,278.903351 
	C298.264923,280.485962 294.594543,281.993896 290.924133,283.501801 
	C291.087616,283.896301 291.251068,284.290802 291.414551,284.685303 
	C299.226135,284.012939 305.058167,289.165680 306.827881,298.169006 
	C302.200897,300.946686 297.128387,303.120544 293.135040,306.550781 
	C280.642517,317.281677 274.099426,330.882111 274.883118,347.688995 
	C274.945343,349.023071 273.665161,351.218750 272.484497,351.684326 
	C263.746216,355.130249 254.874939,358.238922 245.422379,361.927429 
M178.937637,192.360107 
	C175.286209,198.473694 170.722885,204.236465 168.203400,210.785507 
	C164.685059,219.930984 161.655334,229.520767 160.325531,239.183151 
	C158.856873,249.854340 159.482513,260.846985 164.972702,270.774048 
	C168.544647,277.232727 173.873856,280.278564 180.887772,278.862518 
	C186.107376,277.808746 186.306366,272.536804 187.148102,268.438324 
	C189.922363,254.930161 192.359360,241.353165 195.021317,227.821396 
	C198.497238,210.152008 202.115051,192.510391 205.551956,174.833527 
	C206.294830,171.012711 206.527847,167.092789 206.995712,163.218506 
	C206.360703,162.879395 205.725708,162.540268 205.090698,162.201141 
	C196.414139,172.013489 187.737579,181.825821 178.937637,192.360107 
z"/>
<path fill="#498A41" opacity="1.000000" stroke="none" 
	d="
M129.000000,351.841675 
	C130.387482,380.559296 138.658936,406.229706 156.202515,428.842865 
	C174.210480,452.054626 197.561996,466.971039 225.572281,474.604431 
	C233.845703,476.859131 242.689575,477.245880 251.316467,477.920746 
	C261.875092,478.746704 272.480408,478.975647 283.451447,479.480530 
	C290.105316,458.805695 296.622803,438.554596 303.090363,418.458679 
	C309.046448,423.478790 314.515472,428.784912 320.662109,433.133209 
	C336.508972,444.343658 353.267487,444.479126 370.758301,436.780212 
	C381.344421,432.120544 391.270538,426.744843 399.159027,417.110504 
	C403.672577,428.117889 407.850342,438.254944 411.986847,448.408813 
	C416.025085,458.321594 420.065674,468.233917 424.007294,478.185211 
	C425.117889,480.989166 426.733551,482.165588 429.931335,482.083160 
	C439.091827,481.847015 448.301880,482.550385 457.421387,481.895264 
	C483.474579,480.023743 507.312531,471.849121 528.467468,456.119080 
	C547.062744,442.292328 561.092346,424.897461 570.564209,403.840881 
	C576.269043,391.158386 580.442078,377.898132 580.880432,363.937500 
	C581.395264,347.539062 581.000977,331.112091 581.000977,314.348694 
	C611.934814,314.348694 641.660950,314.348694 672.000000,314.348694 
	C672.000000,316.055084 672.000000,317.822021 672.000000,319.588959 
	C672.000000,337.922089 671.935486,356.255493 672.013794,374.588287 
	C672.163879,409.716370 664.689392,443.011993 647.548950,473.798096 
	C636.031799,494.484283 621.077454,512.416870 602.905029,527.765808 
	C590.343567,538.375671 576.827576,547.335632 562.060425,554.418579 
	C544.831055,562.682556 526.857422,568.700195 507.799500,570.972168 
	C498.165192,572.120789 488.484283,572.878906 478.000000,573.893372 
	C478.000000,574.723633 478.000000,576.303345 478.000000,577.883057 
	C478.000000,691.048462 478.061615,804.213989 477.847961,917.378967 
	C477.835022,924.223083 483.148376,925.736328 486.681152,928.749939 
	C497.369232,937.866943 508.583679,946.367249 519.600220,955.098694 
	C531.771729,964.745239 543.961609,974.368774 556.114990,984.038086 
	C557.736450,985.328125 559.190979,986.828003 561.306396,988.765076 
	C506.180634,988.765076 451.948456,988.765076 397.414032,988.765076 
	C383.055359,887.335022 368.687927,785.843018 354.320496,684.350952 
	C354.057404,684.390503 353.794312,684.429993 353.531219,684.469543 
	C340.009644,785.894958 326.488037,887.320374 312.969391,988.723755 
	C256.402313,988.723755 200.344757,988.723755 142.963943,988.723755 
	C147.555969,984.447937 151.237396,980.843140 155.108368,977.454834 
	C161.905304,971.505188 168.856339,965.731873 175.674484,959.806030 
	C188.836853,948.366455 201.948792,936.868958 215.087860,925.402649 
	C218.767624,922.191528 221.182312,918.942932 221.170624,913.287476 
	C220.941193,802.289246 221.000000,691.290344 221.000000,580.291626 
	C221.000000,578.338501 221.000000,576.385376 221.000000,574.512512 
	C213.979828,573.984985 207.432480,573.473267 200.882080,573.004517 
	C183.834122,571.784668 167.602951,567.086121 151.830307,560.883911 
	C137.539764,555.264465 124.297623,547.598022 111.912285,538.470703 
	C100.046379,529.726135 89.481239,519.670715 79.851089,508.490692 
	C69.764603,496.780914 61.417614,483.968292 54.728687,470.153503 
	C46.269344,452.682251 40.568707,434.307922 37.927155,414.956665 
	C34.471394,389.640717 36.646793,364.233459 36.030891,338.875427 
	C35.833614,330.753113 36.000000,322.621979 36.000000,314.250427 
	C67.014542,314.250427 97.622658,314.250427 129.000000,314.250427 
	C129.000000,326.536530 129.000000,338.948212 129.000000,351.841675 
z"/>
<path fill="#498A41" opacity="1.000000" stroke="none" 
	d="
M593.738281,130.344299 
	C600.972351,143.530746 605.439331,157.152420 606.000366,171.916321 
	C606.666321,189.441177 607.934021,206.970032 607.813965,224.489426 
	C607.717712,238.546036 615.594910,248.495712 622.628113,259.155670 
	C626.284546,264.697632 629.695923,270.401276 633.429199,276.369476 
	C631.118958,277.359650 629.291199,278.546204 627.311707,278.912445 
	C622.283264,279.842743 618.749878,278.573608 615.859436,273.414246 
	C610.630493,264.080841 604.221741,255.408401 598.200256,246.300735 
	C573.534058,250.240723 550.124695,257.601135 527.349426,267.207977 
	C517.956909,271.169830 508.662537,275.724640 498.870911,278.265747 
	C491.072205,280.289703 482.478424,280.443146 474.869019,275.961487 
	C467.155914,271.418701 467.049438,267.730896 468.651123,259.879211 
	C470.117615,252.690445 475.056213,247.630356 480.929962,244.151367 
	C496.461700,234.951996 513.295166,230.210419 531.552856,229.867752 
	C550.999939,229.502747 569.985962,232.131653 589.158813,236.061050 
	C553.119751,189.514145 509.816345,152.096390 455.549561,128.074310 
	C454.660889,130.548050 454.223267,133.046677 452.963684,135.020859 
	C449.785187,140.002533 451.942932,143.618561 455.490631,146.987228 
	C470.492126,161.231644 470.007782,182.851639 460.941895,198.997055 
	C452.259308,214.459900 439.557343,225.408249 422.292175,230.187576 
	C409.779602,233.651306 397.413147,233.378616 385.978546,226.009888 
	C378.086334,220.923965 374.707764,208.542313 384.987183,200.634048 
	C388.776581,197.718750 390.511749,191.329956 391.811554,186.179169 
	C393.555664,179.267822 393.676941,171.965332 395.008698,164.928009 
	C398.621063,145.839081 420.224915,132.713165 439.358734,138.151932 
	C441.083679,138.642242 442.823334,139.080841 444.522339,139.534439 
	C445.011169,135.182083 445.659821,130.862885 445.863800,126.522781 
	C445.912262,125.491844 444.669312,123.710564 443.685669,123.424278 
	C429.069000,119.169884 414.553772,114.356255 399.686493,111.240112 
	C387.723724,108.732742 375.293396,108.526726 363.121918,106.912239 
	C357.692719,106.192078 354.630280,108.619469 352.010315,112.799820 
	C342.860809,127.398315 336.447113,143.170319 333.146881,159.994431 
	C330.731354,172.308533 329.648529,184.885178 328.006317,197.349365 
	C327.279938,202.862747 326.820618,208.417465 325.912048,213.899078 
	C324.867645,220.200516 320.035065,222.718460 313.190948,220.650055 
	C302.747772,217.493988 298.698273,208.999924 297.134888,199.449966 
	C292.756348,172.703568 298.062622,147.969269 314.520935,126.143730 
	C318.970978,120.242485 324.445312,115.113663 329.363342,108.414200 
	C321.561981,109.446205 313.746674,110.384758 305.964935,111.547852 
	C301.794067,112.171249 297.700378,113.298767 293.536865,113.986916 
	C288.163239,114.875061 284.269012,117.003929 281.960815,122.562080 
	C276.501587,135.707855 272.744141,149.130157 270.833405,163.304581 
	C268.137329,183.305130 264.396118,203.168991 260.845764,223.045578 
	C260.320892,225.983902 258.535980,228.748764 257.083832,231.459824 
	C253.275574,238.569580 245.126022,239.161865 241.203598,232.114960 
	C238.350769,226.989655 236.139069,221.155029 235.222458,215.385513 
	C233.781906,206.318024 233.897446,197.015717 232.947006,187.855057 
	C231.543884,174.331329 236.922913,162.820114 243.736008,151.976868 
	C249.357422,143.030243 256.074585,134.773148 262.271637,126.185577 
	C262.880310,125.342133 263.246765,124.323921 263.725647,123.386833 
	C263.443237,122.950554 263.160858,122.514282 262.878448,122.078003 
	C248.556152,129.252274 233.895248,135.833099 220.002243,143.759811 
	C204.650467,152.518829 190.875977,163.553131 177.746353,175.530945 
	C155.721359,195.623779 138.063934,218.932312 123.628197,244.842789 
	C117.385658,256.047424 111.531563,267.477570 105.004883,278.511841 
	C100.054848,286.880615 91.491348,290.054871 83.120918,287.606140 
	C74.814728,285.176208 70.218102,277.993896 69.949051,268.043457 
	C69.550056,253.287140 75.685936,240.638153 83.063499,228.694244 
	C89.718758,217.919739 97.674141,207.946075 105.125999,197.669891 
	C105.745026,196.816254 106.897583,196.349518 107.502098,195.006927 
	C102.140076,197.307114 96.915718,200.030243 91.390396,201.828781 
	C74.300552,207.391693 57.156624,212.811691 39.894787,217.807205 
	C35.409355,219.105286 30.420229,218.862579 25.655735,218.946701 
	C19.543749,219.054596 16.673622,215.053406 18.332542,209.215240 
	C20.180557,202.711594 24.750612,198.345215 30.222580,195.018799 
	C48.109329,184.145386 67.599014,177.723267 88.306946,175.016083 
	C102.091049,173.214050 115.895432,171.547104 129.716507,170.058914 
	C134.464539,169.547684 138.071182,167.169586 141.880905,164.663620 
	C155.729202,155.554398 169.732300,146.680573 183.664780,137.698990 
	C184.056015,137.446777 184.309189,136.980423 185.252182,135.892075 
	C169.471573,138.956787 154.520218,142.121445 139.467896,144.695770 
	C128.683640,146.540176 117.793869,147.936371 106.894707,148.881042 
	C99.600266,149.513290 92.112419,149.744949 84.880600,148.824387 
	C74.929222,147.557678 72.467064,142.056488 77.777756,132.869125 
	C83.355156,123.220360 93.149147,119.605003 103.253792,117.087158 
	C119.969543,112.921974 137.144226,113.011467 154.041946,114.283676 
	C173.542007,115.751808 192.840851,119.768616 212.326843,121.639297 
	C216.961121,122.084190 222.054138,118.543915 226.830322,116.579391 
	C247.278580,108.168640 268.230255,101.368553 289.924133,97.039177 
	C301.728607,94.683388 313.622833,92.777069 326.611938,90.466011 
	C317.970947,86.763969 310.253784,83.112160 302.287598,80.124153 
	C289.715729,75.408607 277.146606,70.539322 264.250885,66.882851 
	C255.065292,64.278351 245.309204,63.748150 235.871780,61.954933 
	C221.698395,59.261829 207.052017,58.821205 193.527374,52.946568 
	C189.727173,51.295891 189.424530,48.618473 190.304550,45.335548 
	C192.275284,37.983784 198.210342,34.164482 204.401108,31.407003 
	C218.728348,25.025404 234.068756,23.357979 249.573883,24.075951 
	C272.185669,25.122993 291.089142,34.256279 307.673248,49.808800 
	C320.351440,61.698399 331.641418,74.638313 342.651459,87.953339 
	C343.616943,89.120949 345.711578,89.853508 347.312347,89.909309 
	C353.637268,90.129799 360.010590,89.566696 366.299194,90.092712 
	C378.356140,91.101212 390.367218,92.657730 402.398895,93.972321 
	C403.052002,94.043686 403.719635,93.981537 405.897217,93.981537 
	C401.261078,91.211731 397.910309,88.857292 394.271790,87.097855 
	C379.501648,79.955605 364.348938,73.544823 349.906372,65.802719 
	C337.420593,59.109547 325.067169,51.746758 317.409973,38.967571 
	C317.075378,38.409168 316.258301,37.954391 316.234100,37.425354 
	C316.068420,33.803741 314.591919,28.827923 316.370178,26.897167 
	C318.490784,24.594719 323.787201,23.509066 327.105255,24.330452 
	C338.084229,27.048300 349.086639,30.148228 359.520630,34.456367 
	C369.845917,38.719627 380.380951,43.450130 389.207642,50.116013 
	C399.778503,58.099079 408.713562,68.272331 418.201050,77.654800 
	C422.425659,81.832664 426.291382,86.375916 430.276031,90.792992 
	C432.477966,93.233940 434.839539,95.584297 436.693420,98.275658 
	C441.978271,105.947960 451.120117,106.245522 458.451721,109.975128 
	C470.475708,116.091766 482.567047,122.076080 494.627167,128.121796 
	C496.022675,128.821350 497.400421,129.556366 498.786377,130.274948 
	C499.036469,129.951981 499.286560,129.629013 499.536652,129.306061 
	C498.392181,128.076141 497.318573,126.770172 496.092468,125.627945 
	C482.056030,112.552162 467.603149,99.889862 454.131866,86.257126 
	C448.557709,80.616150 444.492462,73.201088 440.894714,66.015244 
	C439.215790,62.661926 439.808014,57.882183 440.252228,53.845989 
	C440.612579,50.571690 447.587677,48.076077 452.133026,49.071022 
	C461.435608,51.107292 469.193024,56.132305 476.442139,61.987812 
	C494.683472,76.722359 506.231506,96.493057 516.879211,116.800896 
	C523.666443,129.745804 529.378235,143.256409 536.226074,156.166565 
	C538.347534,160.166168 542.583435,163.059830 545.909546,166.401871 
	C554.415527,174.948563 563.083740,183.338165 571.437622,192.030380 
	C577.788574,198.638580 583.756409,205.614944 590.557007,212.236816 
	C588.727234,207.618515 586.887817,203.004028 585.069519,198.381241 
	C579.313721,183.747696 573.133301,169.260727 567.994568,154.413391 
	C565.364685,146.815018 564.222046,138.621490 563.130920,130.598511 
	C562.368835,124.995468 562.925293,118.893951 568.984436,116.165596 
	C575.629883,113.173218 581.412598,116.348366 586.205322,120.858368 
	C589.026733,123.513374 591.114746,126.947655 593.738281,130.344299 
M422.466400,144.001160 
	C414.081055,145.898666 407.832458,150.638245 407.669617,154.360596 
	C413.859192,151.599228 420.384155,148.688217 428.314606,145.150177 
	C425.631561,144.538834 424.450348,144.269669 422.466400,144.001160 
M500.487946,131.857941 
	C500.804932,131.607895 501.121918,131.357849 501.438904,131.107803 
	C500.984528,131.154007 500.530151,131.200211 500.487946,131.857941 
M405.736206,156.883850 
	C406.070953,156.585922 406.405701,156.287979 406.740448,155.990036 
	C406.270050,156.092896 405.799622,156.195755 405.736206,156.883850 
z"/>
<path fill="#498A41" opacity="1.000000" stroke="none" 
	d="
M245.733917,361.690521 
	C254.874939,358.238922 263.746216,355.130249 272.484497,351.684326 
	C273.665161,351.218750 274.945343,349.023071 274.883118,347.688995 
	C274.099426,330.882111 280.642517,317.281677 293.135040,306.550781 
	C297.128387,303.120544 302.200897,300.946686 306.827881,298.169006 
	C305.058167,289.165680 299.226135,284.012939 291.414551,284.685303 
	C291.251068,284.290802 291.087616,283.896301 290.924133,283.501801 
	C294.594543,281.993896 298.264923,280.485962 302.117126,278.903351 
	C301.692413,278.123169 300.813171,276.507996 299.933899,274.892792 
	C300.136749,274.459259 300.339630,274.025757 300.542480,273.592224 
	C303.620941,274.699829 306.699371,275.807404 309.702393,276.887848 
	C310.127258,275.053009 310.696747,272.593384 311.513123,269.067627 
	C314.754700,271.231293 317.488342,273.055969 320.372803,274.981293 
	C321.386780,272.301514 322.387299,269.657288 323.996643,265.403992 
	C326.180237,272.808807 330.730469,272.569397 335.980103,270.312286 
	C336.085205,270.823822 336.190338,271.335388 336.295441,271.846924 
	C335.060303,273.197998 333.408325,274.358154 332.682617,275.942566 
	C331.431030,278.675110 329.975952,281.684753 330.024811,284.553955 
	C330.094299,288.634857 331.798615,290.486481 337.104156,289.274292 
	C351.687683,285.942291 364.407166,290.717682 375.209534,300.758423 
	C378.551758,303.864960 381.602173,307.285400 384.909271,310.688751 
	C394.701050,307.591949 404.309509,304.328766 414.050934,301.528046 
	C426.714447,297.887238 439.372345,294.593719 452.736176,293.756592 
	C464.841705,292.998230 466.971619,301.301727 463.141876,310.356934 
	C459.366669,319.283234 451.768799,324.706879 443.716064,328.887390 
	C427.745239,337.178589 411.334259,344.621735 395.111664,352.428741 
	C394.398682,352.771851 393.749664,353.247742 394.523499,353.538788 
	C396.015686,364.118134 398.330963,374.660980 398.801636,385.285583 
	C399.460907,400.167694 393.146515,412.381866 380.205811,420.069763 
	C370.739716,425.693451 360.801331,430.595642 349.274445,431.071716 
	C337.277435,431.567230 327.802521,426.356293 319.343719,418.732056 
	C315.932495,415.657349 313.432892,411.543060 309.927307,408.607819 
	C304.901672,404.399811 298.669037,401.481201 294.176117,396.829529 
	C289.163269,391.639587 285.031342,393.758728 279.698486,395.531921 
	C264.191772,400.687927 248.581833,405.633148 232.764862,409.697876 
	C227.787064,410.977142 221.844635,409.941345 216.669907,408.653931 
	C210.102661,407.020111 206.102371,401.483704 205.270813,395.201263 
	C204.489044,389.295258 208.682373,384.770264 213.182159,380.930389 
	C222.831207,372.696350 233.683533,366.578064 245.733917,361.690521 
z"/>
<path fill="#498A41" opacity="1.000000" stroke="none" 
	d="
M178.999329,191.999146 
	C187.737579,181.825821 196.414139,172.013489 205.090698,162.201141 
	C205.725708,162.540268 206.360703,162.879395 206.995712,163.218506 
	C206.527847,167.092789 206.294830,171.012711 205.551956,174.833527 
	C202.115051,192.510391 198.497238,210.152008 195.021317,227.821396 
	C192.359360,241.353165 189.922363,254.930161 187.148102,268.438324 
	C186.306366,272.536804 186.107376,277.808746 180.887772,278.862518 
	C173.873856,280.278564 168.544647,277.232727 164.972702,270.774048 
	C159.482513,260.846985 158.856873,249.854340 160.325531,239.183151 
	C161.655334,229.520767 164.685059,219.930984 168.203400,210.785507 
	C170.722885,204.236465 175.286209,198.473694 178.999329,191.999146 
z"/>
<path fill="#FFFFFF" opacity="1.000000" stroke="none" 
	d="
M422.867737,144.000839 
	C424.450348,144.269669 425.631561,144.538834 428.314606,145.150177 
	C420.384155,148.688217 413.859192,151.599228 407.669617,154.360596 
	C407.832458,150.638245 414.081055,145.898666 422.867737,144.000839 
z"/>
<path fill="#FFFFFF" opacity="1.000000" stroke="none" 
	d="
M500.281860,131.552185 
	C500.530151,131.200211 500.984528,131.154007 501.438904,131.107819 
	C501.121918,131.357849 500.804932,131.607895 500.281860,131.552185 
z"/>
<path fill="#FFFFFF" opacity="1.000000" stroke="none" 
	d="
M405.532715,156.591232 
	C405.799622,156.195755 406.270050,156.092896 406.740448,155.990051 
	C406.405701,156.287979 406.070953,156.585922 405.532715,156.591232 
z"/>
</svg>