<?xml version="1.0" encoding="UTF-8" standalone="no"?>
<!-- Created with Inkscape (http://www.inkscape.org/) -->

<svg
   version="1.1"
   id="svg1"
   width="1015"
   height="1015"
   viewBox="0 0 1015 1015"
   sodipodi:docname="new_logo.svg"
   inkscape:version="1.4.4 (1:1.4.4+202605061436+dcaf3e7d9e)"
   xmlns:inkscape="http://www.inkscape.org/namespaces/inkscape"
   xmlns:sodipodi="http://sodipodi.sourceforge.net/DTD/sodipodi-0.dtd"
   xmlns="http://www.w3.org/2000/svg"
   xmlns:svg="http://www.w3.org/2000/svg">
  <defs
     id="defs1">
    <inkscape:path-effect
       effect="fillet_chamfer"
       id="path-effect23"
       is_visible="true"
       lpeversion="1"
       nodesatellites_param="F,0,0,1,0,0,0,1 @ F,0,0,1,0,0,0,1 @ F,0,0,1,0,0,0,1 @ F,0,0,1,0,0,0,1 @ F,0,0,1,0,0,0,1 @ F,0,0,1,0,0,0,1 @ F,0,0,1,0,0,0,1 @ F,0,0,1,0,0,0,1 @ F,0,0,1,0,0,0,1 @ F,0,0,1,0,0,0,1 @ F,0,0,1,0,0,0,1 @ F,0,0,1,0,0,0,1 @ F,0,0,1,0,0,0,1 @ F,0,0,1,0,0,0,1 @ F,0,0,1,0,0,0,1 @ F,0,0,1,0,0,0,1 @ F,0,0,1,0,0,0,1 @ F,0,0,1,0,0,0,1 @ F,0,0,1,0,0,0,1 @ F,0,0,1,0,0,0,1 @ F,0,0,1,0,0,0,1 @ F,0,0,1,0,0,0,1 @ F,0,0,1,0,0,0,1 @ F,0,0,1,0,0,0,1 @ F,0,0,1,0,0,0,1 | F,0,0,1,0,4.0888707,0,1 @ F,0,0,1,0,0,0,1 @ F,0,0,1,0,0,0,1 @ F,0,0,1,0,4.0794385,0,1 @ F,0,0,1,0,0,0,1 @ F,0,0,1,0,0,0,1 @ F,0,0,1,0,0,0,1 @ F,0,0,1,0,0,0,1 @ F,0,0,1,0,1.0269093,0,1"
       radius="0"
       unit="px"
       method="auto"
       mode="F"
       chamfer_steps="1"
       flexible="false"
       use_knot_distance="true"
       apply_no_radius="true"
       apply_with_radius="true"
       only_selected="false"
       hide_knots="false" />
    <inkscape:path-effect
       effect="fillet_chamfer"
       id="path-effect22"
       is_visible="true"
       lpeversion="1"
       nodesatellites_param="F,0,0,1,0,0,0,1 @ F,0,0,1,0,0,0,1 @ F,0,0,1,0,0,0,1 @ F,0,0,1,0,0,0,1 @ F,0,0,1,0,0,0,1 @ F,0,0,1,0,0,0,1 @ F,0,0,1,0,0,0,1 @ F,0,0,1,0,0,0,1 @ F,0,0,1,0,0,0,1 @ F,0,0,1,0,0,0,1 @ F,0,0,1,0,0,0,1 @ F,0,0,1,0,0,0,1 @ F,0,0,1,0,0,0,1 @ F,0,0,1,0,0,0,1 @ F,0,0,1,0,0,0,1 @ F,0,0,1,0,0,0,1 @ F,0,0,1,0,0,0,1 @ F,0,0,1,0,0,0,1 @ F,0,0,1,0,0,0,1 @ F,0,0,1,0,0,0,1 @ F,0,0,1,0,0,0,1 @ F,0,0,1,0,0,0,1 @ F,0,0,1,0,0,0,1 @ F,0,0,1,0,0,0,1 @ F,0,0,1,0,0,0,1 | F,0,0,1,0,0,0,1 @ F,0,0,1,0,0,0,1 @ F,0,0,1,0,0,0,1 @ F,0,0,1,0,0,0,1 @ F,0,0,1,0,0,0,1 @ F,0,0,1,0,0,0,1 @ F,0,0,1,0,0,0,1 @ F,0,0,1,0,0,0,1 @ F,0,0,1,0,0,0,1"
       radius="0"
       unit="px"
       method="auto"
       mode="F"
       chamfer_steps="1"
       flexible="false"
       use_knot_distance="true"
       apply_no_radius="true"
       apply_with_radius="true"
       only_selected="false"
       hide_knots="false" />
    <inkscape:path-effect
       effect="fillet_chamfer"
       id="path-effect21"
       is_visible="true"
       lpeversion="1"
       nodesatellites_param="F,0,0,1,0,0,0,1 @ F,0,0,1,0,0,0,1 @ F,0,0,1,0,0,0,1 @ F,0,0,1,0,0,0,1 @ F,0,0,1,0,0,0,1 @ F,0,0,1,0,0,0,1 @ F,0,0,1,0,0,0,1 @ F,0,0,1,0,0,0,1 @ F,0,0,1,0,0,0,1 @ F,0,0,1,0,0,0,1 @ F,0,0,1,0,0,0,1 @ F,0,0,1,0,0,0,1 @ F,0,0,1,0,0,0,1 @ F,0,0,1,0,0,0,1 @ F,0,0,1,0,0,0,1 @ F,0,0,1,0,0,0,1 @ F,0,0,1,0,0,0,1 @ F,0,0,1,0,0,0,1 @ F,0,0,1,0,0,0,1 @ F,0,0,1,0,0,0,1 @ F,0,0,1,0,0,0,1 @ F,0,0,1,0,0,0,1 @ F,0,0,1,0,0,0,1 @ F,0,0,1,0,0,0,1 @ F,0,0,1,0,0,0,1 | F,0,0,1,0,0,0,1 @ F,0,0,1,0,0,0,1 @ F,0,0,1,0,0,0,1 @ F,0,0,1,0,7.9477813,0,1 @ F,0,0,1,0,0,0,1 @ F,0,0,1,0,0,0,1 @ F,0,0,1,0,0,0,1 @ F,0,0,1,0,0,0,1 @ F,0,0,1,0,2.8816863,0,1"
       radius="0"
       unit="px"
       method="auto"
       mode="F"
       chamfer_steps="1"
       flexible="false"
       use_knot_distance="true"
       apply_no_radius="true"
       apply_with_radius="true"
       only_selected="false"
       hide_knots="false" />
  </defs>
  <sodipodi:namedview
     id="namedview1"
     pagecolor="#ffffff"
     bordercolor="#000000"
     borderopacity="0.25"
     inkscape:showpageshadow="2"
     inkscape:pageopacity="0.0"
     inkscape:pagecheckerboard="0"
     inkscape:deskcolor="#d1d1d1"
     inkscape:zoom="0.58356272"
     inkscape:cx="534.6469"
     inkscape:cy="600.62096"
     inkscape:window-width="1920"
     inkscape:window-height="949"
     inkscape:window-x="0"
     inkscape:window-y="0"
     inkscape:window-maximized="1"
     inkscape:current-layer="g16" />
  <g
     inkscape:groupmode="layer"
     inkscape:label="Image"
     id="g1">
    <g
       id="g20"
       inkscape:label="tm-symbol">
      <path
         style="mix-blend-mode:normal;fill:#338000;fill-opacity:1"
         d="m 864.20496,379.15662 c -12.21907,-4.11764 -21.09407,-15.986 -22.04919,-28.77942 -1.17737,-11.75932 4.53581,-23.79455 14.30599,-30.4157 4.55728,-3.32978 10.03766,-5.63353 15.76628,-5.42838 5.76337,-0.0175 11.94497,-0.54412 17.15261,2.44666 8.66349,3.90778 15.04024,11.82435 18.18313,20.66597 1.27007,5.11573 0.94335,10.48682 0.67338,15.70502 -0.66942,5.64999 -3.62999,10.78907 -6.93296,15.30344 -6.35821,7.68073 -16.35583,12.052 -26.26052,12.25567 -3.6774,0.0474 -7.37016,-0.52076 -10.83872,-1.75326 z m 20.49799,-6.36141 c 8.44244,-3.49031 15.15133,-11.19921 16.99865,-20.18246 0.89584,-7.64615 0.0457,-16.14394 -5.3726,-22.06595 -6.11552,-7.59217 -16.48118,-11.53692 -26.0617,-9.42783 -11.95425,2.24862 -21.38125,13.37562 -21.81787,25.49946 -0.46117,11.5972 7.55864,23.01045 18.62699,26.46787 5.65596,1.04786 11.64599,1.32157 17.24927,-0.1436 z M 860.49092,359.75 c -0.97316,-4.73932 -0.29756,-9.68241 -1.36645,-14.39427 0.15076,-3.72059 -8.56984,-3.72281 -4.55395,-6.3325 4.45056,-0.84389 10.07216,-1.1723 14.55367,-0.41591 3.95547,0.16018 2.75416,4.69054 -0.59871,4.50824 -3.82152,0.1571 -2.45554,4.20869 -3.05516,7.13435 -0.49901,3.05621 0.95999,11.00128 -3.71174,10.63513 -0.5761,-0.1344 -1.08043,-0.56789 -1.26766,-1.13504 z m 13.17575,0.58333 c -0.92919,-4.97756 -0.64918,-10.13519 -0.57604,-15.19032 -0.1968,-3.30131 1.0271,-8.27243 5.41383,-7.07596 3.17602,0.66154 3.72355,4.45598 4.72545,7.02239 0.27379,2.73989 2.67387,2.39555 2.9609,-0.12451 0.83957,-3.17754 2.66411,-6.89904 6.35038,-7.27924 3.38834,0.81978 2.40601,5.50972 3.09518,8.22032 0.31789,4.54972 0.92815,9.22648 -0.0616,13.72319 -2.5913,3.58216 -5.58425,-1.54772 -4.60112,-4.33867 -0.41177,-2.12486 0.48176,-6.95887 -2.04314,-7.12878 -2.19553,2.50969 -1.78699,6.52244 -4.14787,8.81162 -2.36891,-0.66922 -2.92705,-3.4947 -3.78465,-5.53369 -0.4864,-1.26729 -0.97279,-2.53457 -1.45919,-3.80186 -0.36486,3.45512 -0.0822,7.02389 -1.11004,10.36909 -0.55915,1.88161 -2.88751,4.35434 -4.76207,2.32642 z"
         id="path9"
         inkscape:label="tm-symbol"
         sodipodi:nodetypes="ccccccccccccccccccccccccccscccccccccccccss" />
    </g>
    <g
       id="g19"
       inkscape:label="olive-branch">
      <path
         style="fill:#3a820e;fill-opacity:0.949517"
         d="m 592.07258,225.36514 c -5.19847,-8.86446 1.82505,-18.9049 6.46834,-26.51535 3.13956,-3.77634 7.80021,-12.0975 -0.66917,-7.29701 -9.21748,2.61922 -20.4949,8.79147 -29.51565,4.93283 0.84705,-10.06063 14.59859,-12.70318 22.75364,-15.51293 12.33992,-3.39952 26.68953,-1.48902 36.89026,-10.5314 4.95058,-2.41659 10.64097,-8.36361 0.80205,-5.84745 -11.3968,1.15224 -23.32406,5.40363 -34.60205,2.20617 -3.62671,-10.38306 12.02633,-13.85885 19.88659,-13.20167 12.87473,-0.4742 25.72843,0.69463 38.44008,2.66256 14.67445,-5.92592 29.9961,-10.02111 45.46889,-13.22851 -3.89548,-5.96309 -15.61881,-7.8667 -23.14637,-10.3858 -10.20652,-3.03054 -21.63801,-2.32852 -31.17417,-7.20383 -1.2551,-10.74784 15.07999,-11.21736 23.05345,-11.26515 13.55407,-0.86702 24.28778,8.31821 32.93678,17.57068 3.72175,3.75057 7.4435,7.50115 11.16525,11.25172 6.86348,-0.25047 13.92995,0.65149 20.6272,-0.81344 -10.36057,-7.5006 -24.52711,-10.5571 -33.01339,-20.96081 -4.91466,-13.80668 15.99507,-3.06172 21.84167,-0.93813 16.96266,7.17619 24.74368,27.26667 42.7218,32.85423 5.01368,2.91664 15.3783,6.96971 6.36694,-0.85014 -5.95304,-7.50963 -16.59576,-12.6894 -18.13854,-22.79019 4.01727,-11.2806 18.22579,2.90975 22.65549,8.37219 10.86972,13.33424 14.9025,31.27811 28.20899,42.79654 3.74048,3.91122 15.71231,17.00884 9.95859,4.13456 -2.92156,-9.32972 -9.43059,-19.42054 -5.44705,-29.30342 9.87783,-4.63787 15.00553,12.22075 15.92085,20.04279 1.43492,10.3873 0.79035,21.15191 2.01739,31.44526 3.07029,5.28824 7.12311,10.18732 8.91008,16.07444 -8.73733,2.77738 -10.95745,-17.79949 -22.17253,-10.97835 -12.43844,2.53942 -23.72568,8.58448 -35.77506,12.25356 -11.27892,4.00543 -16.95385,-10.83337 -5.4699,-15.05142 11.41943,-7.74123 26.02465,-5.86815 38.95697,-4.48173 12.13871,2.50191 -2.93734,-10.29473 -5.83775,-13.59274 C 790.0464,178.69223 775.90169,166.09302 758.54402,160 c -6.27696,6.65517 9.46427,16.99146 2.75625,26.16137 -4.36738,13.2911 -21.5651,22.8209 -34.19936,14.78792 -6.33285,-8.35004 6.41399,-17.1131 5.09769,-26.89292 1.32235,-11.78699 16.43042,-7.82096 20.60506,-13.74367 -4.37375,-9.6641 -20.86575,-7.47754 -30.32742,-10.16629 -3.90457,0.15114 -9.33556,-1.85143 -10.45729,3.35547 -8.38351,12.66985 -8.43716,28.21162 -11.38002,42.55628 -7.70129,9.2755 -14.34281,-8.8377 -12.24023,-15.93689 0.33773,-10.50132 6.28986,-19.53509 12.46601,-27.52778 -6.46632,-3.75913 -21.15939,0.42717 -21.09504,10.75726 -3.58824,13.1102 -3.55986,27.09152 -8.49975,39.82364 -9.09465,7.82914 -10.3552,-12.78706 -10.21072,-18.9601 -0.71566,-9.86809 8.51263,-17.26105 10.4594,-25.77276 -11.98122,3.01854 -22.38967,10.97516 -31.82012,18.83808 -14.01464,12.02413 -24.48353,27.54101 -32.59212,44.00068 -2.45635,5.57939 -10.44315,9.82791 -15.03378,4.08485 z m 40.93615,-3.20256 c -7.07297,-9.12295 -3.05954,-22.17045 2.12173,-31.30768 3.55783,-4.35737 8.97049,-14.38531 13.65269,-13.55958 -1.92279,13.72951 -4.76502,27.39358 -7.73677,40.94228 -0.97404,4.61579 -3.83231,9.83296 -8.03765,3.92498 z"
         id="path8"
         inkscape:label="branch-on-farmer-head" />
    </g>
    <g
       id="g21"
       inkscape:label="leaves">
      <path
         style="fill:#3a820e;fill-opacity:0.949517"
         d="m 813.42929,501.67633 c 0.86175,-5.49341 4.73543,-10.00971 7.27945,-14.85737 10.11245,-17.38519 20.33875,-34.71392 30.04938,-52.32547 1.57533,-2.27028 1.16189,-5.80083 -1.36773,-2.25657 -17.80431,19.64105 -34.31601,40.42787 -52.31312,59.89771 -3.90008,0.35221 -4.63822,-7.11751 -5.90614,-10.55204 -3.1807,-15.2395 0.92602,-31.25862 8.22495,-44.72815 10.26227,-18.42648 29.79162,-29.64662 49.77124,-34.64823 8.29532,-2.04155 16.77952,-3.61885 25.32358,-3.94636 5.95281,0.60111 4.10138,8.19273 4.50143,12.36143 0.13421,23.13621 -3.58774,47.48403 -17.36833,66.70248 -10.35921,15.09098 -27.90694,25.77043 -46.48108,25.52632 -0.72431,-0.0497 -1.49484,-0.42912 -1.71363,-1.17375 z"
         id="path7"
         inkscape:label="leaves-1" />
      <path
         style="fill:#3a820e;fill-opacity:0.949517"
         d="m 503.89343,282.62563 c -14.43274,-4.81464 -24.8392,-17.14939 -32.22558,-29.93193 -0.38853,-5.50177 9.62114,-6.22546 13.78838,-9.06185 13.01441,-5.69798 27.99879,-6.7473 41.76919,-3.47129 7.64503,2.89119 15.07975,7.80141 19.34446,14.91392 0.12877,5.01592 -9.89099,1.73478 -13.72114,2.8791 -11.49527,0.3215 -23.08466,-0.54619 -34.51172,0.92895 -3.78061,2.97475 6.52467,3.54354 8.88815,4.82845 12.50184,3.72336 25.44769,6.26611 37.55527,11.13035 -4.0812,5.50074 -11.6064,8.06699 -18.21466,9.51138 -7.53474,1.19211 -15.42751,0.72386 -22.67235,-1.72708 z M 521,223.44211 c -15.9474,-3.88523 -28.98936,-15.25773 -38.41545,-28.28461 -7.57174,-12.32356 -11.86866,-26.60334 -11.91409,-41.09289 -0.16529,-9.2876 -0.4926,-18.78073 1.7723,-27.85605 4.22752,-4.28509 11.98513,0.13708 17.47838,0.7777 22.36582,5.75116 44.95609,15.81723 59.20062,34.74044 10.25873,13.3279 14.79657,31.51654 9.88868,47.83345 -3.22576,2.82006 -7.73148,-6.11963 -11.27791,-7.92213 -16.55855,-15.56072 -32.30635,-31.99513 -49.30476,-47.07777 -5.70298,-2.19919 3.09103,9.35566 4.62487,11.43975 12.90542,17.7754 26.07884,35.37497 38.46492,53.51537 5.67793,6.4279 -6.33557,5.10668 -10.12218,5.21462 -3.48908,-0.13783 -7.00204,-0.42411 -10.39538,-1.28788 z"
         id="path6"
         inkscape:label="leaves-2" />
    </g>
    <g
       id="g16"
       inkscape:label="farmers-body">
      <path
         style="fill:#3a820e;fill-opacity:0.949517"
         d="m 631.17668,529.59309 c 8.08601,-8.9578 17.68882,-16.40104 26.61995,-24.49596 2.25469,-45.92833 0.72388,-91.9658 0.62918,-137.93298 2.76164,-12.30131 -3.60121,-19.64526 -16.02373,-18.23791 -27.11784,-4.02338 -50.2281,-24.54083 -59.82738,-49.83302 -5.87281,-18.05941 -4.34905,-37.21631 -4.5747,-55.9175 11.20269,-0.17015 22.41161,-0.75349 33.61292,-0.40347 3.17536,14.92222 0.87691,32.08306 11.16337,44.91132 11.20246,16.44298 30.11993,26.91633 50.14306,26.38919 16.62063,6.1482 14.29339,-15.88652 20.6611,-22.6563 10.85917,10.43943 26.91394,5.92218 38.36757,-0.30512 6.94591,8.98071 7.15858,29.46383 24.05198,24.49698 30.81734,0.0521 59.42985,-26.65111 58.67034,-58.01038 1.23206,-4.3579 -1.61182,-12.93058 2.20095,-14.59794 H 849 c -0.005,23.06346 1.76404,47.74279 -11.99431,67.75909 -14.05039,23.40125 -40.20157,37.76128 -67.1658,39.56729 -9.63123,7.37623 -2.43181,26.08749 -4.80392,37.87034 0.26286,38.91184 -0.77303,77.87274 0.88035,116.75281 5.61792,10.39587 23.00347,14.64002 26.05748,25.09662 -19.10442,1.47846 -38.32039,0.3755 -57.4738,0.45385 -5.73025,-41.93868 -11.52725,-83.89226 -17.98257,-125.72855 -5.63923,-15.31471 -8.02645,11.67516 -8.68537,16.87989 -4.39216,34.40446 -9.07096,68.77575 -13.67836,103.14727 -6.05713,12.23354 -27.13528,3.58216 -39.52751,6.19494 -7.62687,-0.55081 -16.44653,1.0748 -23.44951,-1.40046 z M 691.6711,283.91458 c -9.11829,-10.80003 -15.56324,-11.54362 -27.9911,-5.76889 -21.91037,6.18467 -14.9792,-8.33963 -2.65426,-10.22931 18.22059,-6.34188 15.29183,-4.80156 17.60977,-16.65235 0.43235,-2.2104 2.5335,-4.75953 4.53495,-5.79388 9.304,-4.80831 8.17723,-6.16996 10.02922,-11.38568 7.96824,8.67813 20.95106,-1.51576 29.4931,8.5966 8.59954,0.059 32.37148,-14.43768 35.38933,-4.83623 -6.28937,12.54489 -36.27058,9.49777 -28.57269,37.89341 5.17998,14.29327 -17.16035,21.94712 -29.27571,16.6753 -0.51996,-0.22625 -1.25978,-0.7578 -1.66926,-1.1502 l -1.38596,-1.3281 c -1.63046,-1.56241 -4.05073,-4.29535 -5.50739,-6.02067 z"
         id="path5"
         inkscape:label="farmers-body"
         sodipodi:nodetypes="cccccccccccccccccccccccccccccccccccc"
         inkscape:path-effect="#path-effect23"
         inkscape:original-d="m 631.17668,529.59309 c 8.08601,-8.9578 17.68882,-16.40104 26.61995,-24.49596 2.25469,-45.92833 0.72388,-91.9658 0.62918,-137.93298 2.76164,-12.30131 -3.60121,-19.64526 -16.02373,-18.23791 -27.11784,-4.02338 -50.2281,-24.54083 -59.82738,-49.83302 -5.87281,-18.05941 -4.34905,-37.21631 -4.5747,-55.9175 11.20269,-0.17015 22.41161,-0.75349 33.61292,-0.40347 3.17536,14.92222 0.87691,32.08306 11.16337,44.91132 11.20246,16.44298 30.11993,26.91633 50.14306,26.38919 16.62063,6.1482 14.29339,-15.88652 20.6611,-22.6563 10.85917,10.43943 26.91394,5.92218 38.36757,-0.30512 6.94591,8.98071 7.15858,29.46383 24.05198,24.49698 30.81734,0.0521 59.42985,-26.65111 58.67034,-58.01038 1.23206,-4.3579 -1.61182,-12.93058 2.20095,-14.59794 H 849 c -0.005,23.06346 1.76404,47.74279 -11.99431,67.75909 -14.05039,23.40125 -40.20157,37.76128 -67.1658,39.56729 -9.63123,7.37623 -2.43181,26.08749 -4.80392,37.87034 0.26286,38.91184 -0.77303,77.87274 0.88035,116.75281 5.61792,10.39587 23.00347,14.64002 26.05748,25.09662 -19.10442,1.47846 -38.32039,0.3755 -57.4738,0.45385 -5.73025,-41.93868 -11.52725,-83.89226 -17.98257,-125.72855 -5.63923,-15.31471 -8.02645,11.67516 -8.68537,16.87989 -4.39216,34.40446 -9.07096,68.77575 -13.67836,103.14727 -6.05713,12.23354 -27.13528,3.58216 -39.52751,6.19494 -7.62687,-0.55081 -16.44653,1.0748 -23.44951,-1.40046 z m 63.04959,-242.48684 c -10.5529,-13.80304 -16.9905,-15.25939 -30.54627,-8.96056 -21.91037,6.18467 -14.9792,-8.33963 -2.65426,-10.22931 20.04421,-6.97661 14.49372,-4.41428 18.48989,-20.63438 13.25826,-6.3574 11.61852,-7.38044 13.68405,-13.19753 7.96824,8.67813 20.95106,-1.51576 29.4931,8.5966 8.59954,0.059 32.37148,-14.43768 35.38933,-4.83623 -6.28937,12.54489 -36.27058,9.49777 -28.57269,37.89341 5.31529,14.66664 -18.34627,22.34245 -30.20353,16.2356 z" />
    </g>
    <g
       id="g15"
       inkscape:label="letters-farms">
      <path
         style="fill:#2d5016"
         d="m 382.2,905.8 c -2.25464,-8.96056 -0.97243,-18.58013 -2.44058,-27.76015 -0.61112,-9.88556 -2.63339,-19.98441 -0.84841,-29.81335 9.16658,-3.51004 20.02871,-2.86638 29.82393,-2.48127 6.63644,8.0727 -4.67599,14.03213 -12.07797,12.38571 -3.36104,0.16825 -7.78655,-0.62483 -5.9967,4.19524 -0.44245,7.20805 0.45336,17.72029 10.46909,14.40241 6.77747,-3.53156 16.12284,5.54933 5.47967,7.64174 -7.52629,-0.151 -15.80076,0.95037 -13.10903,10.77038 1.43359,7.11207 -3.56529,15.19878 -11.3,10.65929 z m 41.02251,-2.3567 c -5.00206,-7.97857 -0.31947,-18.38817 0.57628,-27.18905 3.07981,-12.95812 5.50566,-26.31245 10.92376,-38.5246 3.5283,-7.58155 15.73795,-7.27875 17.73795,1.26183 3.62368,18.39529 7.08047,36.8582 10.89882,55.22914 3.76716,10.20472 -11.56544,9.11665 -12.22696,0.57354 -3.02058,-2.93629 -9.78604,-0.0407 -14.02802,-0.36864 -6.05336,1.37161 -4.7888,15.5173 -13.88183,9.01778 z m 25.31342,-20.50143 c -0.72206,-7.16253 -0.61297,-18.55393 -6.12751,-22.59494 -2.63499,6.37027 -8.86078,18.57347 -3.80212,23.38971 3.21964,0.19517 6.97853,0.76879 9.92963,-0.79477 z m 28.42812,13.23011 c -4.59147,-7.92291 -2.11842,-18.36046 -3.55698,-27.25 -0.46496,-15.618 -2.53729,-31.18904 -2.85835,-46.77447 3.4949,-9.1321 16.23895,-7.99568 24.48712,-9.69242 8.41475,-0.70733 20.25964,-0.48679 22.74267,9.6278 3.81074,15.34426 -3.68352,32.69996 -17.18635,40.8757 -9.5736,8.42644 9.776,12.3849 16.06456,11.11594 11.58993,2.3851 -1.47788,16.63401 -9.22195,13.54174 -6.98758,1.48442 -15.60306,-11.51923 -19.63415,-6.06545 0.31698,6.64747 -0.28028,21.23842 -10.83657,14.62116 z m 19.32249,-42.18273 c 6.74048,-6.74466 7.36411,-18.89948 3.09889,-27.01681 -5.2733,-7.71044 -18.90374,-4.11627 -14.48734,6.41117 1.38494,7.16424 -1.74886,17.51797 4.05456,22.48902 2.56074,0.55467 5.29305,-0.31321 7.33389,-1.88338 z M 530.53652,890.75 c -0.67462,-19.80932 -1.35215,-39.68701 -0.64478,-59.49539 5.96318,-11.14426 15.86597,3.5333 19.3629,9.89985 3.36971,8.65844 10.81284,11.2103 12.32911,0.21532 1.44982,-8.53126 12.33837,-17.20708 19.59142,-9.74673 4.79083,9.96693 2.69865,21.56287 3.60166,32.27919 -1.58484,7.98595 4.33951,22.65991 -5.05208,26.09776 -9.86737,-2.08219 -4.10975,-16.69232 -5.72562,-24.56892 -1.18227,-5.53903 2.80702,-20.39786 -3.84361,-19.95387 -4.72139,5.68261 -8.75088,26.15944 -17.95214,14.65636 -3.3516,-4.19139 -11.18551,-17.256 -11.09861,-4.42294 -1.41653,11.22948 -0.31142,22.62187 -1.78093,33.82577 -0.89582,3.17995 -6.77304,3.10678 -8.78732,1.2136 z m 77.49336,0.13741 c -9.27838,-1.29085 -17.45876,-19.35868 -3.85102,-19.33871 4.20587,5.04594 16.17694,11.91769 14.3429,-0.26924 -6.27759,-11.34714 -19.71243,-18.02681 -23.23681,-30.98766 -1.76507,-11.51987 11.21587,-18.55474 21.26692,-17.07906 9.20159,-0.44653 24.21739,12.95355 13.21143,20.35745 -6.07439,1.89409 -16.97483,-15.12937 -18.0339,-2.29978 7.0731,10.99213 21.02096,18.0937 22.98276,32.10242 1.34195,13.91083 -15.01062,21.7519 -26.68228,17.51458 z"
         id="path4"
         inkscape:label="Farms-text" />
    </g>
    <g
       id="g14"
       inkscape:label="letters-exotic">
      <path
         style="fill:#2d5016"
         d="m 305,842.81282 c -16.84153,-18.72126 2.40381,-45.68719 9.80606,-65.2507 11.99638,-27.00658 28.89242,-52.53936 35.59138,-81.5205 0.53841,-29.791 -30.08938,-48.27968 -35.28443,-76.11841 -4.0806,-30.54744 37.55532,-34.26116 44.60348,-6.76918 4.76541,20.77221 21.08721,28.07032 23.62196,2.20211 1.3113,-23.24475 35.80091,-50.07503 50.51591,-23.04727 3.07547,29.9585 -21.25278,53.3689 -33.63105,78.49866 -16.49306,22.89144 3.05169,48.55718 10.14482,71.00633 7.88391,23.31225 23.90783,46.99165 19.15729,72.44405 -17.59008,33.80736 -55.31072,1.77959 -49.94538,-27.10281 0.11926,-11.90862 -4.58634,-51.45585 -14.25994,-21.21065 -9.71503,23.70553 -10.95009,52.33902 -29.21704,71.56216 -7.99225,7.15304 -21.3572,9.88357 -31.10306,5.30621 z M 204.5,826.29478 c -28.80134,-9.1823 -16.73251,-47.56633 -19.52474,-70.40581 0.71645,-33.58965 -2.97671,-67.05165 -10.41189,-99.78449 -4.7894,-29.90903 36.59105,-24.92075 54.76925,-34.46956 20.26661,-3.73212 54.18824,-24.50525 63.89116,4.85602 6.31388,32.72394 -34.55624,31.15675 -55.58032,26.80607 -29.36625,-3.70028 -31.47804,57.97173 0.15357,41.73748 26.28034,-19.35698 46.94626,23.88689 14.62854,29.75693 -24.93411,-3.34501 -44.04566,24.7914 -29.4219,45.82122 25.25118,18.94909 39.89461,-24.31725 61.64687,-28.29563 25.06278,6.35159 18.72967,44.23592 0.36288,55.95514 -22.21432,18.32556 -51.91566,27.7756 -80.51342,28.02263 z m 362.96134,-11.27467 c -30.2837,-6.58106 -18.33684,-44.10483 -16.20886,-65.97603 5.4111,-41.78815 16.44567,-84.75911 7.13989,-126.70825 -13.1896,-22.99705 -48.81816,5.00899 -65.52122,-16.94102 -15.22129,-27.75331 25.33625,-40.49201 46.30042,-33.28926 26.30141,5.81204 52.78627,-0.16121 76.99035,-10.74852 19.37678,-9.30443 58.19668,-15.9862 61.89698,13.56431 0.84343,26.01126 -24.56149,38.18089 -47.10768,38.34671 -29.39,-0.49423 -28.05672,35.36779 -29.81907,56.37716 -2.92524,42.35385 7.18477,84.94328 1.23726,127.04353 -3.70284,15.40924 -20.76251,20.8685 -34.90807,18.33137 z M 644.5,798.48096 c -21.61535,-16.80726 -9.52853,-48.31188 -13.0346,-71.89395 0.76906,-27.83603 -2.39462,-56.16883 2.73395,-83.6243 5.45553,-29.22493 43.46826,-14.35215 34.88538,12.16729 0.21665,32.40449 3.51151,64.56911 7.95134,96.61665 4.1982,22.64981 -1.91684,54.47813 -32.53607,46.73431 z m -173.88226,-4.54019 c -31.27922,-9.98791 -41.69225,-47.27858 -41.99758,-76.75108 -1.18849,-32.16995 5.53286,-72.04774 37.17541,-87.98132 28.6608,-11.93831 59.17865,11.10767 65.84255,39.07606 9.91643,37.34716 9.00303,83.13733 -18.09734,113.29219 -10.54706,13.23688 -27.3171,14.71276 -42.92304,12.36415 z m 21.14981,-52.55652 c 11.92456,-19.61983 12.83912,-47.38402 0.52989,-67.05877 -28.19551,-15.41396 -28.8624,38.06346 -23.45463,55.62151 1.7857,10.28871 13.62935,22.88532 22.92474,11.43726 z M 731,737.57325 c -34.77088,-9.18371 -44.06732,-50.44723 -42.08191,-81.82084 1.40084,-38.67009 13.67187,-83.55725 49.31933,-104.20396 24.98238,-15.35798 62.75738,2.12409 62.6459,32.57705 5.84888,20.94536 -28.47238,49.82474 -37.42742,21.00256 -11.27947,-28.9914 -28.43481,15.65854 -29.69665,29.33725 -6.6024,18.01663 -3.02101,72.3091 24.39075,49.33061 2.65361,-27.28478 41.92339,-34.69745 48.23327,-6.03229 6.80448,40.50061 -39.75037,68.30856 -75.38327,59.80962 z"
         id="path3"
         inkscape:label="Exotic-text" />
    </g>
    <g
       id="g13"
       inkscape:label="letters-drp">
      <path
         style="fill:#2d5016"
         d="m 177.52038,601.71317 c -14.90279,-11.30713 -11.34431,-32.60531 -12.75249,-49.11524 -1.19577,-22.45455 0.91345,-45.14756 -1.52821,-67.49096 -3.19951,-26.0264 -10.90433,-52.69233 -4.33248,-78.69516 6.80733,-24.20259 34.77979,-29.54 56.59944,-28.55614 31.65513,-1.17967 62.3902,18.30535 74.10928,47.83812 17.34637,44.11321 12.85022,99.34495 -19.90769,135.37346 -21.48937,23.32967 -51.40068,42.14241 -83.81969,42.92633 -2.88833,-0.2417 -5.8154,-0.84603 -8.36816,-2.28041 z m 46.68639,-60.89326 c 25.31899,-12.66156 32.22691,-43.75474 28.82642,-69.66852 -1.79392,-22.05628 -18.67713,-47.08994 -42.75269,-46.95943 -16.42057,11.26139 -5.94756,37.98826 -7.87403,55.79978 1.423,18.88921 1.66435,38.18854 6.78002,56.51821 2.47705,5.92986 9.84214,6.02371 15.02028,4.30996 z M 315,566.92146 c -18.58319,-7.29216 -14.32879,-30.14057 -8.01246,-44.64261 12.65593,-39.04811 5.37083,-80.46431 -1.31477,-119.88767 -2.42763,-18.02413 -3.89901,-41.73999 14.32082,-52.34926 17.74996,-10.83195 40.00062,-9.72823 59.70573,-6.47394 34.91488,8.62083 65.16655,40.74449 65.00946,77.67462 -0.26784,23.20202 -16.51778,41.58387 -34.24171,54.56644 -18.33825,14.50198 5.79108,32.37918 17.73847,41.09404 18.7563,8.43993 26.63173,36.57436 4.41652,46.04922 -20.4632,8.37846 -38.64253,-10.51799 -47.35538,-27.16227 -8.56328,-8.79553 -13.8415,-40.77175 -28.43564,-31.0121 -4.5386,18.24166 3.01002,40.62945 -10.92445,55.66475 -7.9225,7.69465 -20.56825,11.09731 -30.90659,6.47878 z m 61.75669,-120.95774 c 18.93681,-7.46868 25.31803,-37.77778 6.44858,-48.93055 -13.93941,-14.03839 -35.1261,-4.1255 -28.66082,16.31086 0.17288,15.55595 -4.09105,46.73995 22.21224,32.61969 z M 486.5,555.6629 c -15.11009,-3.06394 -26.31341,-18.75977 -23.92835,-33.92018 -0.16973,-43.97435 10.51529,-87.71382 4.70558,-131.73097 -1.05743,-18.08108 -5.75957,-41.68768 11.89401,-53.63366 19.30586,-9.67675 42.63901,-4.68276 62.42539,1.20718 33.48399,12.12648 70.09485,33.80731 77.61409,71.55209 8.65891,35.20921 -14.60592,72.66086 -48.22251,84.16392 -14.1028,10.68382 -46.98925,-5.80192 -49.81607,14.93841 4.65206,16.41302 8.77322,47.32355 -15.995,48.14466 -6.20395,0.46932 -12.56551,0.635 -18.67714,-0.72145 z M 542.29183,444.992 c 22.06407,-6.7513 26.7322,-41.54887 5.62601,-52.3224 -20.61346,-16.9383 -36.28797,6.09356 -30.63953,26.05793 -2.15363,17.06957 3.64216,36.5133 25.01352,26.26447 z"
         id="path2"
         inkscape:label="drp-text" />
    </g>
  </g>
</svg>
